<?xml version="1.0" encoding="UTF-8"?>
<svg width="700pt" height="700pt" version="1.1" viewBox="0 0 700 700" xmlns="http://www.w3.org/2000/svg">
 <g>
  <path d="m513.33 278.37c-6.1875 0-12.121 2.457-16.496 6.832-4.3789 4.3789-6.8359 10.312-6.8359 16.5v192.97c0 4.9492-1.9648 9.6992-5.4688 13.199-3.5 3.5-8.2461 5.4648-13.199 5.4648h-336c-4.9492 0-9.6992-1.9648-13.199-5.4648s-5.4648-8.25-5.4648-13.199v-336c0-4.9531 1.9648-9.6992 5.4648-13.199 3.5-3.5039 8.25-5.4688 13.199-5.4688h197.87c8.3359 0 16.039-4.4492 20.207-11.668s4.168-16.113 0-23.332-11.871-11.668-20.207-11.668h-197.87c-17.309 0.0625-33.891 6.9648-46.129 19.203-12.238 12.242-19.141 28.824-19.203 46.133v336c0.0625 17.309 6.9648 33.891 19.203 46.129s28.82 19.141 46.129 19.203h336c17.309-0.0625 33.891-6.9648 46.133-19.203 12.238-12.238 19.141-28.82 19.203-46.129v-192.97c0-6.1875-2.4609-12.121-6.8359-16.5-4.375-4.375-10.309-6.832-16.5-6.832z"/>
  <path d="m544.6 11.199c-7.4375-7.2148-17.406-11.238-27.77-11.199-10.047 0.15625-19.652 4.1641-26.832 11.199l-81.434 82.133-155.63 157.97c-6.6953 6.7656-10.75 15.703-11.434 25.199l-4.668 80.266c-0.84375 11.371 3.3359 22.543 11.434 30.566 7.3477 7.4102 17.332 11.605 27.77 11.668l81.434-4.668h-0.003906c9.6055-0.42969 18.66-4.6211 25.203-11.664l236.37-239.87c7.2578-7.5625 11.309-17.637 11.309-28.117 0-10.48-4.0508-20.555-11.309-28.117zm-192.73 336-68.367 4.4336 3.2656-68.602 172.43-175 64.398 65.332zm204.17-207.2-63.934-64.867 24.965-25.199 64.168 65.332z"/>
 </g>
</svg>
