<?xml version="1.0" encoding="UTF-8" standalone="no"?>
<svg
   xmlns:dc="http://purl.org/dc/elements/1.1/"
   xmlns:cc="http://creativecommons.org/ns#"
   xmlns:rdf="http://www.w3.org/1999/02/22-rdf-syntax-ns#"
   xmlns:svg="http://www.w3.org/2000/svg"
   xmlns="http://www.w3.org/2000/svg"
   xmlns:sodipodi="http://sodipodi.sourceforge.net/DTD/sodipodi-0.dtd"
   xmlns:inkscape="http://www.inkscape.org/namespaces/inkscape"
   inkscape:version="1.0 (4035a4f, 2020-05-01)"
   sodipodi:docname="man.svg"
   xml:space="preserve"
   style="enable-background:new 0 0 487.678 487.678;"
   viewBox="0 0 487.678 487.678"
   y="0px"
   x="0px"
   id="Capa_1"
   version="1.1"><metadata
   id="metadata53"><rdf:RDF><cc:Work
       rdf:about=""><dc:format>image/svg+xml</dc:format><dc:type
         rdf:resource="http://purl.org/dc/dcmitype/StillImage" /></cc:Work></rdf:RDF></metadata><defs
   id="defs51" /><sodipodi:namedview
   inkscape:current-layer="Capa_1"
   inkscape:window-maximized="0"
   inkscape:window-y="23"
   inkscape:window-x="0"
   inkscape:cy="243.839"
   inkscape:cx="243.839"
   inkscape:zoom="1.507142"
   showgrid="false"
   id="namedview49"
   inkscape:window-height="992"
   inkscape:window-width="1233"
   inkscape:pageshadow="2"
   inkscape:pageopacity="0"
   guidetolerance="10"
   gridtolerance="10"
   objecttolerance="10"
   borderopacity="1"
   bordercolor="#666666"
   pagecolor="#ffffff" />
<g
   style="fill:#ffffff"
   id="g16">
	<g
   style="fill:#ffffff"
   id="g14">
		<path
   id="path10"
   d="M377.996,282.347c-56.201-18.357-79.563-41.185-79.563-41.185l-1.881,1.793    c-16.69,15.709-35.149,24.944-51.965,24.944H243c-16.815,0-35.274-9.235-51.964-24.944l-1.882-1.793    c0,0-23.36,22.827-79.562,41.185c-82.964,30.992-58.053,157.119-58.077,158.096c2.613,14.047,4.136,18.875,5.463,19.417    c83.314,37.091,290.319,37.091,373.634,0c1.327-0.542,2.85-5.37,5.463-19.417C436.051,439.466,461.295,313.84,377.996,282.347z"
   style="fill:#ffffff" />
		<path
   id="path12"
   d="M330.924,121.441l-0.696-0.755c-4.668-4.274-4.303-4.029-4.303-4.029s8.142-41.083,1.613-60.511    c-10.25-31.027-71.475-51.822-83.755-54.239c0.002-0.023-7.469-1.518-7.946-1.521c0,0-9.659-1.953-20.854,2.93    c-7.291,2.805-45.408,20.09-56.227,52.83c-6.528,19.428,1.614,60.511,1.614,60.511s0.365-0.245-4.304,4.029l-0.695,0.755    c-3.158,3.586-2.378,14.806,1.074,26.479c3.128,11.695,7.205,14.838,8.182,17.577c9.903,46.497,44.338,86.197,79.429,86.197    s67.707-39.7,77.61-86.197c0.978-2.738,5.055-5.882,8.183-17.577C333.301,136.246,334.172,124.256,330.924,121.441z"
   style="fill:#ffffff" />
	</g>
</g>
<g
   style="fill:#ffffff"
   id="g18">
</g>
<g
   style="fill:#ffffff"
   id="g20">
</g>
<g
   style="fill:#ffffff"
   id="g22">
</g>
<g
   style="fill:#ffffff"
   id="g24">
</g>
<g
   style="fill:#ffffff"
   id="g26">
</g>
<g
   style="fill:#ffffff"
   id="g28">
</g>
<g
   style="fill:#ffffff"
   id="g30">
</g>
<g
   style="fill:#ffffff"
   id="g32">
</g>
<g
   style="fill:#ffffff"
   id="g34">
</g>
<g
   style="fill:#ffffff"
   id="g36">
</g>
<g
   style="fill:#ffffff"
   id="g38">
</g>
<g
   style="fill:#ffffff"
   id="g40">
</g>
<g
   style="fill:#ffffff"
   id="g42">
</g>
<g
   style="fill:#ffffff"
   id="g44">
</g>
<g
   style="fill:#ffffff"
   id="g46">
</g>
</svg>
