<?xml version="1.0" encoding="UTF-8" standalone="no"?>
<svg
   xmlns:dc="http://purl.org/dc/elements/1.1/"
   xmlns:cc="http://creativecommons.org/ns#"
   xmlns:rdf="http://www.w3.org/1999/02/22-rdf-syntax-ns#"
   xmlns:svg="http://www.w3.org/2000/svg"
   xmlns="http://www.w3.org/2000/svg"
   xmlns:sodipodi="http://sodipodi.sourceforge.net/DTD/sodipodi-0.dtd"
   xmlns:inkscape="http://www.inkscape.org/namespaces/inkscape"
   id="Layer_1"
   enable-background="new 0 0 480.061 480.061"
   height="512"
   viewBox="0 0 480.061 480.061"
   width="512"
   version="1.1"
   sodipodi:docname="man.svg"
   inkscape:version="1.0 (4035a4f, 2020-05-01)">
  <metadata
     id="metadata17">
    <rdf:RDF>
      <cc:Work
         rdf:about="">
        <dc:format>image/svg+xml</dc:format>
        <dc:type
           rdf:resource="http://purl.org/dc/dcmitype/StillImage" />
      </cc:Work>
    </rdf:RDF>
  </metadata>
  <defs
     id="defs15" />
  <sodipodi:namedview
     inkscape:document-rotation="0"
     pagecolor="#ffffff"
     bordercolor="#666666"
     borderopacity="1"
     objecttolerance="10"
     gridtolerance="10"
     guidetolerance="10"
     inkscape:pageopacity="0"
     inkscape:pageshadow="2"
     inkscape:window-width="730"
     inkscape:window-height="480"
     id="namedview13"
     showgrid="false"
     inkscape:zoom="1.4355469"
     inkscape:cx="256"
     inkscape:cy="256"
     inkscape:window-x="0"
     inkscape:window-y="23"
     inkscape:window-maximized="0"
     inkscape:current-layer="Layer_1" />
  <path
     d="m 387.15,91.051 c -9.75,9.89 -15.12,23 -15.12,36.9 0,59.037 0.014,54.965 -0.032,56.006 -0.255,5.786 -8.968,5.496 -8.968,-0.296 v -35.6 c 0,-13.842 -11.758,-24.984 -25.8,-23.93 -26.556,1.998 -52.865,-5.729 -74.21,-22.81 -12.248,-9.802 -30.524,-5.401 -36.92,9 -0.916,2.063 -1.714,4.175 -2.39,6.321 -1.504,4.777 -6.963,7.105 -11.365,4.718 -6.111,-3.315 -11.854,-7.283 -17.145,-11.848 -30.471,-26.251 -77.794,-5.025 -78.17,35.09 v 39.06 c 0,5.791 -8.714,6.081 -8.968,0.296 -0.046,-1.035 -0.032,1.903 -0.032,-42.906 -0.44,-20.3 2.58,-71.15 39.65,-106.88 45.741,-44.099 119.074,-41.324 173.07,-15.38 5.164,2.437 6.382,9.417 1.74,13.4 26.937,6.707 50.453,23.687 65.81,48.62 1.901,3.068 1.551,7.495 -1.15,10.239 z m -48.72,49.03 c -30.052,2.269 -60.492,-6.339 -85.4,-26.27 -4.074,-3.255 -10.162,-1.807 -12.31,3 -2.728,6.141 -4.054,12.898 -3.729,19.746 0.257,5.426 -4.969,9.517 -10.181,7.985 -15.488,-4.555 -29.774,-12.319 -42.06,-22.91 -20.144,-17.37 -51.459,-3.4 -51.72,23.12 v 66.66 c 0,56.416 47.083,105.77 107,105.77 58.72,0 106.54,-47.54 107,-106.16 v -62.96 c 0,-4.609 -3.897,-8.319 -8.6,-7.981 z m -43.11,191.91 c -1.217,-1.238 -2.276,-2.505 -3.198,-3.787 -2.082,-2.895 -5.876,-3.984 -9.216,-2.736 -26.945,10.072 -57.63,10.503 -85.745,0.002 -3.34,-1.247 -7.127,-0.153 -9.213,2.738 -0.908,1.258 -1.948,2.503 -3.138,3.723 -2.14,2.19 -2.84,5.45 -1.73,8.32 8.55,22.22 31.08,39.63 57.07,39.63 25.63,0 49.21,-16.03 56.94,-39.84 0.92,-2.82 0.3,-5.94 -1.77,-8.05 z m -126.685,15.281 c -1.185,-2.945 -3.875,-5.041 -8.035,-5.041 -45.628,0 -82.57,36.94 -82.57,82.57 v 47.26 c 0,4.418 3.582,8 8,8 h 308 c 4.418,0 8,-3.582 8,-8 v -47.26 c 0,-43.737 -34.436,-82.105 -82.887,-82.572 -3.439,-0.033 -6.535,2.103 -7.725,5.33 -22.967,62.281 -116.376,65.331 -142.783,-0.287 z"
     id="path10"
     style="fill:#000000;stroke-width:1" />
</svg>
