<?xml version="1.0" encoding="UTF-8" standalone="no"?>
<svg
   xmlns:dc="http://purl.org/dc/elements/1.1/"
   xmlns:cc="http://creativecommons.org/ns#"
   xmlns:rdf="http://www.w3.org/1999/02/22-rdf-syntax-ns#"
   xmlns:svg="http://www.w3.org/2000/svg"
   xmlns="http://www.w3.org/2000/svg"
   xmlns:sodipodi="http://sodipodi.sourceforge.net/DTD/sodipodi-0.dtd"
   xmlns:inkscape="http://www.inkscape.org/namespaces/inkscape"
   inkscape:version="1.0 (4035a4f, 2020-05-01)"
   sodipodi:docname="lunar.svg"
   xml:space="preserve"
   style="enable-background:new 0 0 245.712 245.712;"
   viewBox="0 0 245.712 245.712"
   y="0px"
   x="0px"
   id="Capa_1"
   version="1.1"><metadata
   id="metadata49"><rdf:RDF><cc:Work
       rdf:about=""><dc:format>image/svg+xml</dc:format><dc:type
         rdf:resource="http://purl.org/dc/dcmitype/StillImage" /></cc:Work></rdf:RDF></metadata><defs
   id="defs47" /><sodipodi:namedview
   inkscape:current-layer="Capa_1"
   inkscape:window-maximized="0"
   inkscape:window-y="23"
   inkscape:window-x="0"
   inkscape:cy="134.1062"
   inkscape:cx="45.042175"
   inkscape:zoom="1.1434484"
   showgrid="false"
   id="namedview45"
   inkscape:window-height="480"
   inkscape:window-width="705"
   inkscape:pageshadow="2"
   inkscape:pageopacity="0"
   guidetolerance="10"
   gridtolerance="10"
   objecttolerance="10"
   borderopacity="1"
   bordercolor="#666666"
   pagecolor="#ffffff" />
<g
   transform="matrix(-1,0,0,1,245.712,0)"
   id="g12">
	<path
   id="path10"
   d="m 4.854,171.952 c 19.037,43.423 62.392,73.76 112.843,73.76 68.021,0 123.161,-55.14 123.161,-123.161 C 240.858,58.673 192.23,6.158 129.97,0 c 29.061,19.009 48.261,51.833 48.261,89.152 0,58.799 -47.662,106.462 -106.461,106.462 -25.355,0 -48.633,-8.867 -66.916,-23.662 z"
   style="fill:#030104" />
</g>
<g
   transform="matrix(-1,0,0,1,245.712,0)"
   id="g14">
</g>
<g
   transform="matrix(-1,0,0,1,245.712,0)"
   id="g16">
</g>
<g
   transform="matrix(-1,0,0,1,245.712,0)"
   id="g18">
</g>
<g
   transform="matrix(-1,0,0,1,245.712,0)"
   id="g20">
</g>
<g
   transform="matrix(-1,0,0,1,245.712,0)"
   id="g22">
</g>
<g
   transform="matrix(-1,0,0,1,245.712,0)"
   id="g24">
</g>
<g
   transform="matrix(-1,0,0,1,245.712,0)"
   id="g26">
</g>
<g
   transform="matrix(-1,0,0,1,245.712,0)"
   id="g28">
</g>
<g
   transform="matrix(-1,0,0,1,245.712,0)"
   id="g30">
</g>
<g
   transform="matrix(-1,0,0,1,245.712,0)"
   id="g32">
</g>
<g
   transform="matrix(-1,0,0,1,245.712,0)"
   id="g34">
</g>
<g
   transform="matrix(-1,0,0,1,245.712,0)"
   id="g36">
</g>
<g
   transform="matrix(-1,0,0,1,245.712,0)"
   id="g38">
</g>
<g
   transform="matrix(-1,0,0,1,245.712,0)"
   id="g40">
</g>
<g
   transform="matrix(-1,0,0,1,245.712,0)"
   id="g42">
</g>
</svg>
