<?xml version="1.0" encoding="UTF-8" standalone="no"?>
<svg
   xmlns:dc="http://purl.org/dc/elements/1.1/"
   xmlns:cc="http://creativecommons.org/ns#"
   xmlns:rdf="http://www.w3.org/1999/02/22-rdf-syntax-ns#"
   xmlns:svg="http://www.w3.org/2000/svg"
   xmlns="http://www.w3.org/2000/svg"
   height="175.242"
   width="348.3905"
   xml:space="preserve"
   viewBox="0 0 348.39049 175.242"
   y="0px"
   x="0px"
   id="Capa_1"
   version="1.1">
<g
   style="fill:#c4cace;fill-opacity:1"
   transform="matrix(17.419894,0,0,15.902178,-34.830456,-206.41027)"
   id="g102"><path
     style="fill:#c4cace;fill-opacity:1"
     d="M 21.9,19.93 18,13.02 c -1.27,1.27 -2.94,2.13 -4.8,2.39 -0.39,0.06 -0.79,0.09 -1.2,0.09 -0.44,0 -0.87,-0.03 -1.29,-0.1 l 1.25,2.21 3.39,6.01 C 15.48,23.85 15.73,24 16,24 h 0.02 c 0.28,-0.01 0.53,-0.17 0.66,-0.42 l 1.37,-2.77 3.14,0.24 c 0.28,0.02 0.54,-0.11 0.69,-0.35 0.15,-0.23 0.16,-0.53 0.02,-0.77 z"
     id="path100" /></g><path
   id="path960"
   d="m 96.407403,172.21082 c -2.543338,-1.58447 -6.485038,-7.83573 -14.96283,-23.72999 -6.330428,-11.86837 -12.027813,-22.27431 -12.660856,-23.12435 -0.962448,-1.29234 -4.827496,-1.27238 -23.595231,0.12182 -33.46771,2.48621 -36.0310998,2.38459 -40.4965808,-1.60532 -6.834562,-6.10667 -7.146339,-5.41774 30.0168218,-66.327584 18.539565,-30.38605 33.897054,-55.4399404 34.127754,-55.6753104 0.2307,-0.23536 3.754327,2.2257 7.830283,5.46904 8.654723,6.8867704 25.903706,17.2983504 33.403586,20.1625704 5.14037,1.96313 5.61051,2.60818 26.28667,36.06594 11.57898,18.73688 20.94865,34.42311 20.82149,34.85827 -0.12716,0.43517 -10.08626,16.794344 -22.13135,36.353714 -14.04443,22.80601 -23.04456,36.28285 -25.09052,37.57067 -4.13954,2.60563 -9.22694,2.55326 -13.549237,-0.13947 z"
   style="fill:#c4cace;fill-opacity:1;stroke-width:1.15099" /></svg>
