<?xml version="1.0" encoding="UTF-8" standalone="no"?>
<svg
   xmlns:dc="http://purl.org/dc/elements/1.1/"
   xmlns:cc="http://creativecommons.org/ns#"
   xmlns:rdf="http://www.w3.org/1999/02/22-rdf-syntax-ns#"
   xmlns:svg="http://www.w3.org/2000/svg"
   xmlns="http://www.w3.org/2000/svg"
   xmlns:sodipodi="http://sodipodi.sourceforge.net/DTD/sodipodi-0.dtd"
   xmlns:inkscape="http://www.inkscape.org/namespaces/inkscape"
   inkscape:version="1.0 (4035a4f, 2020-05-01)"
   sodipodi:docname="gym.svg"
   id="svg20"
   version="1.1"
   width="438pt"
   viewBox="0 -110 438 437"
   height="438pt">
  <metadata
     id="metadata26">
    <rdf:RDF>
      <cc:Work
         rdf:about="">
        <dc:format>image/svg+xml</dc:format>
        <dc:type
           rdf:resource="http://purl.org/dc/dcmitype/StillImage" />
      </cc:Work>
    </rdf:RDF>
  </metadata>
  <defs
     id="defs24" />
  <sodipodi:namedview
     inkscape:current-layer="svg20"
     inkscape:window-maximized="0"
     inkscape:window-y="23"
     inkscape:window-x="0"
     inkscape:cy="160.24455"
     inkscape:cx="71.323676"
     inkscape:zoom="0.69052689"
     showgrid="false"
     id="namedview22"
     inkscape:window-height="820"
     inkscape:window-width="1052"
     inkscape:pageshadow="2"
     inkscape:pageopacity="0"
     guidetolerance="10"
     gridtolerance="10"
     objecttolerance="10"
     borderopacity="1"
     bordercolor="#666666"
     pagecolor="#ffffff" />
  <path
     style="fill:#ffffff"
     id="path10"
     d="m140.171875 70.085938h157.65625v77.703124h-157.65625zm0 0" />
  <path
     style="fill:#ffffff"
     id="path12"
     d="m415.101562 48.953125h-10.9375v114.585937h10.9375c12.640626-.015624 22.886719-10.257812 22.898438-22.902343v-68.789063c-.015625-12.640625-10.261719-22.882812-22.898438-22.894531zm0 0" />
  <path
     style="fill:#ffffff"
     id="path14"
     d="m361.265625.5h-43.4375v216.875h43.4375c12.640625-.015625 22.886719-10.257812 22.898437-22.898438v-171.078124c-.011718-12.640626-10.257812-22.882813-22.898437-22.898438zm0 0" />
  <path
     style="fill:#ffffff"
     id="path16"
     d="m53.835938 23.398438v171.078124c.011718 12.640626 10.257812 22.886719 22.898437 22.898438h43.4375v-216.875h-43.4375c-12.640625.015625-22.886719 10.257812-22.898437 22.898438zm0 0" />
  <path
     style="fill:#ffffff"
     id="path18"
     d="m0 71.851562v68.785157c.0117188 12.644531 10.257812 22.886719 22.898438 22.902343h10.9375v-114.585937h-10.9375c-12.640626.011719-22.882813 10.257813-22.898438 22.898437zm0 0" />
</svg>
