<?xml version="1.0" encoding="UTF-8" standalone="no"?>
<svg
   xmlns:dc="http://purl.org/dc/elements/1.1/"
   xmlns:cc="http://creativecommons.org/ns#"
   xmlns:rdf="http://www.w3.org/1999/02/22-rdf-syntax-ns#"
   xmlns:svg="http://www.w3.org/2000/svg"
   xmlns="http://www.w3.org/2000/svg"
   xmlns:sodipodi="http://sodipodi.sourceforge.net/DTD/sodipodi-0.dtd"
   xmlns:inkscape="http://www.inkscape.org/namespaces/inkscape"
   inkscape:version="1.0 (4035a4f, 2020-05-01)"
   sodipodi:docname="minivan.svg"
   xml:space="preserve"
   style="enable-background:new 0 0 99.442 99.443;"
   viewBox="0 0 99.442 99.443"
   height="99.443px"
   width="99.442px"
   y="0px"
   x="0px"
   id="Capa_1"
   version="1.1"><metadata
   id="metadata55"><rdf:RDF><cc:Work
       rdf:about=""><dc:format>image/svg+xml</dc:format><dc:type
         rdf:resource="http://purl.org/dc/dcmitype/StillImage" /></cc:Work></rdf:RDF></metadata><defs
   id="defs53" /><sodipodi:namedview
   inkscape:current-layer="Capa_1"
   inkscape:window-maximized="0"
   inkscape:window-y="23"
   inkscape:window-x="0"
   inkscape:cy="50.017382"
   inkscape:cx="54.905468"
   inkscape:zoom="5.4548242"
   showgrid="false"
   id="namedview51"
   inkscape:window-height="929"
   inkscape:window-width="1241"
   inkscape:pageshadow="2"
   inkscape:pageopacity="0"
   guidetolerance="10"
   gridtolerance="10"
   objecttolerance="10"
   borderopacity="1"
   bordercolor="#666666"
   pagecolor="#ffffff" />
<g
   style="fill:#ffffff"
   transform="matrix(-1,0,0,1,99.442087,0)"
   id="g18">
	<g
   style="fill:#ffffff"
   id="g16">
		<path
   style="fill:#ffffff"
   id="path10"
   d="m 19.097,54.071 c -4.175,0 -7.561,3.383 -7.561,7.56 0,0.324 0.026,0.641 0.066,0.951 0.469,3.729 3.642,6.611 7.494,6.611 3.959,0 7.202,-3.042 7.53,-6.916 0.018,-0.214 0.033,-0.428 0.033,-0.646 0.001,-4.177 -3.384,-7.56 -7.562,-7.56 z m -3.787,4.711 1.543,1.543 c -0.121,0.206 -0.214,0.429 -0.274,0.665 h -2.174 c 0.113,-0.825 0.428,-1.575 0.905,-2.208 z m -0.913,3.516 h 2.189 c 0.062,0.233 0.153,0.454 0.274,0.656 L 15.314,64.5 c -0.476,-0.629 -0.801,-1.381 -0.917,-2.202 z m 4.046,4.03 C 17.625,66.216 16.879,65.894 16.25,65.42 l 1.537,-1.538 c 0.202,0.118 0.424,0.205 0.656,0.266 v 2.18 z m 0,-7.212 c -0.238,0.062 -0.461,0.157 -0.668,0.279 l -1.541,-1.541 c 0.633,-0.48 1.385,-0.8 2.209,-0.913 z m 1.309,-2.175 c 0.826,0.113 1.577,0.433 2.209,0.914 l -1.54,1.54 c -0.207,-0.122 -0.43,-0.218 -0.669,-0.279 z m 0,9.387 v -2.182 c 0.233,-0.061 0.454,-0.147 0.657,-0.268 l 1.538,1.54 c -0.63,0.476 -1.375,0.796 -2.195,0.91 z m 3.133,-1.824 -1.551,-1.551 c 0.12,-0.203 0.22,-0.42 0.282,-0.655 h 2.172 c -0.115,0.821 -0.424,1.577 -0.903,2.206 z M 21.617,60.99 c -0.06,-0.236 -0.153,-0.459 -0.274,-0.665 l 1.543,-1.543 c 0.478,0.633 0.792,1.383 0.905,2.208 z" />
		<path
   style="fill:#ffffff"
   id="path12"
   d="m 83.965,54.071 c -4.176,0 -7.561,3.383 -7.561,7.56 0,0.324 0.025,0.641 0.065,0.951 0.468,3.729 3.643,6.611 7.494,6.611 3.958,0 7.201,-3.042 7.53,-6.916 0.018,-0.214 0.031,-0.428 0.031,-0.646 0.002,-4.177 -3.382,-7.56 -7.559,-7.56 z m -3.788,4.711 1.543,1.543 c -0.12,0.206 -0.214,0.429 -0.273,0.665 h -2.175 c 0.113,-0.825 0.428,-1.575 0.905,-2.208 z m -0.912,3.516 h 2.19 c 0.062,0.233 0.152,0.454 0.272,0.656 L 80.182,64.5 C 79.705,63.871 79.38,63.119 79.265,62.298 Z m 4.045,4.03 C 82.492,66.216 81.747,65.894 81.118,65.42 l 1.537,-1.538 c 0.201,0.118 0.424,0.205 0.655,0.266 z m 0,-7.212 c -0.237,0.062 -0.461,0.157 -0.669,0.279 L 81.1,57.854 c 0.634,-0.48 1.385,-0.8 2.209,-0.913 l 0.001,2.175 z m 1.31,-2.175 c 0.824,0.113 1.576,0.433 2.209,0.914 l -1.541,1.54 C 85.081,59.273 84.857,59.177 84.62,59.116 Z m 0,9.387 v -2.182 c 0.231,-0.061 0.454,-0.147 0.655,-0.268 l 1.538,1.54 c -0.629,0.476 -1.375,0.796 -2.193,0.91 z m 3.132,-1.824 -1.551,-1.551 c 0.12,-0.203 0.22,-0.42 0.281,-0.655 h 2.174 c -0.116,0.821 -0.426,1.577 -0.904,2.206 z M 86.483,60.99 c -0.06,-0.236 -0.152,-0.459 -0.272,-0.665 l 1.542,-1.543 c 0.478,0.633 0.792,1.383 0.906,2.208 z" />
		<path
   style="fill:#ffffff"
   id="path14"
   d="m 99.091,47.939 c -0.056,-1.67 -0.516,-3.301 -1.339,-4.754 l -5.43,-9.581 C 91.432,32.035 89.801,31.031 88,30.94 78.9,30.484 50.998,29.322 42.214,31.684 36.272,33.283 21.278,43.14 21.278,43.14 c 0,0 -16.497,2.555 -19.644,10.079 0,0 -1.358,0.793 -1.605,2.826 -0.127,1.046 0.183,2.634 0.525,3.965 0.375,1.456 1.582,2.552 3.067,2.783 l 7.16,1.122 c -0.107,-0.391 -0.196,-0.788 -0.248,-1.198 -0.045,-0.354 -0.075,-0.716 -0.075,-1.087 0,-4.763 3.875,-8.637 8.639,-8.637 4.765,0 8.64,3.874 8.64,8.637 0,0.249 -0.016,0.493 -0.036,0.735 -0.072,0.844 -0.268,1.651 -0.567,2.408 l 0.842,0.045 47.568,-1.287 c -0.061,-0.268 -0.109,-0.538 -0.145,-0.814 -0.046,-0.354 -0.074,-0.716 -0.074,-1.087 0,-4.763 3.875,-8.637 8.638,-8.637 4.765,0 8.64,3.874 8.64,8.637 0,0.249 -0.016,0.493 -0.037,0.735 -0.013,0.16 -0.041,0.315 -0.062,0.473 L 96.609,62 C 98.302,61.654 99.5,60.14 99.44,58.411 Z M 71.715,32.71 72.808,43.621 56.034,44.307 V 32.655 c 4.904,-0.113 10.502,-0.062 15.681,0.055 z M 29.387,45.087 27.728,45.18 c -0.451,0.025 -0.864,-0.249 -1.016,-0.675 -0.152,-0.424 -0.005,-0.897 0.358,-1.164 0.975,-0.712 2.169,-1.563 3.499,-2.462 v 2.784 c -0.81,0.685 -1.182,1.424 -1.182,1.424 z m 4.111,-2.554 c -0.105,0.004 -0.191,0.03 -0.291,0.04 V 39.15 c 3.382,-2.144 7.215,-4.273 10.511,-5.34 1.5,-0.485 4.236,-0.795 7.636,-0.98 v 11.668 l -14.412,0.589 c 0,0 -0.5,-2.664 -3.444,-2.554 z m 58.27,-1.058 c -0.503,0.874 -1.419,1.429 -2.426,1.471 L 77.49,43.43 76.428,32.836 c 4.898,0.149 8.99,0.333 11.063,0.445 0.959,0.051 1.824,0.604 2.271,1.454 l 2.057,3.903 c 0.471,0.893 0.451,1.965 -0.051,2.837 z" />
	</g>
</g>
<g
   style="fill:#ffffff"
   transform="matrix(-1,0,0,1,99.442087,0)"
   id="g20">
</g>
<g
   style="fill:#ffffff"
   transform="matrix(-1,0,0,1,99.442087,0)"
   id="g22">
</g>
<g
   style="fill:#ffffff"
   transform="matrix(-1,0,0,1,99.442087,0)"
   id="g24">
</g>
<g
   style="fill:#ffffff"
   transform="matrix(-1,0,0,1,99.442087,0)"
   id="g26">
</g>
<g
   style="fill:#ffffff"
   transform="matrix(-1,0,0,1,99.442087,0)"
   id="g28">
</g>
<g
   style="fill:#ffffff"
   transform="matrix(-1,0,0,1,99.442087,0)"
   id="g30">
</g>
<g
   style="fill:#ffffff"
   transform="matrix(-1,0,0,1,99.442087,0)"
   id="g32">
</g>
<g
   style="fill:#ffffff"
   transform="matrix(-1,0,0,1,99.442087,0)"
   id="g34">
</g>
<g
   style="fill:#ffffff"
   transform="matrix(-1,0,0,1,99.442087,0)"
   id="g36">
</g>
<g
   style="fill:#ffffff"
   transform="matrix(-1,0,0,1,99.442087,0)"
   id="g38">
</g>
<g
   style="fill:#ffffff"
   transform="matrix(-1,0,0,1,99.442087,0)"
   id="g40">
</g>
<g
   style="fill:#ffffff"
   transform="matrix(-1,0,0,1,99.442087,0)"
   id="g42">
</g>
<g
   style="fill:#ffffff"
   transform="matrix(-1,0,0,1,99.442087,0)"
   id="g44">
</g>
<g
   style="fill:#ffffff"
   transform="matrix(-1,0,0,1,99.442087,0)"
   id="g46">
</g>
<g
   style="fill:#ffffff"
   transform="matrix(-1,0,0,1,99.442087,0)"
   id="g48">
</g>
</svg>
